<?xml version="1.0" standalone="no"?>
<!DOCTYPE svg PUBLIC "-//W3C//DTD SVG 20010904//EN"
 "http://www.w3.org/TR/2001/REC-SVG-20010904/DTD/svg10.dtd">
<svg version="1.0" xmlns="http://www.w3.org/2000/svg"
 width="150.000000pt" height="150.000000pt" viewBox="0 0 150.000000 150.000000"
 preserveAspectRatio="xMidYMid meet">
<metadata>
Created by potrace 1.11, written by Peter Selinger 2001-2013
</metadata>
<g transform="translate(0.000000,150.000000) scale(0.100000,-0.100000)"
fill="#000000" stroke="none">
<path d="M0 750 l0 -750 750 0 750 0 0 750 0 750 -750 0 -750 0 0 -750z m945
432 c58 -27 82 -46 103 -87 21 -40 21 -150 -1 -191 -18 -36 -76 -89 -106 -99
-32 -10 -25 -19 29 -38 105 -37 153 -108 153 -224 -1 -85 -27 -150 -77 -188
-51 -39 -136 -73 -206 -83 -99 -14 -462 -10 -467 5 -5 13 22 27 68 37 14 3 38
15 52 27 l27 20 0 375 c0 360 -1 375 -20 394 -11 11 -38 23 -60 26 -47 8 -72
30 -49 45 8 6 116 8 259 7 231 -3 248 -4 295 -26z"/>
<path d="M691 1159 c-18 -4 -37 -13 -42 -21 -5 -7 -9 -79 -9 -160 0 -146 0
-148 25 -164 50 -32 199 7 243 64 23 30 27 45 27 102 0 112 -54 171 -165 182
-25 2 -60 1 -79 -3z"/>
<path d="M670 747 l-25 -13 -3 -177 c-2 -177 -2 -177 22 -202 21 -21 35 -25
86 -25 72 0 123 19 168 63 50 48 65 84 66 154 0 72 -30 127 -92 167 -63 42
-172 58 -222 33z"/>
</g>
</svg>
